<?xml version="1.0" standalone="no"?><!DOCTYPE svg PUBLIC "-//W3C//DTD SVG 1.1//EN" "http://www.w3.org/Graphics/SVG/1.1/DTD/svg11.dtd"><svg t="1618218598466" class="icon" viewBox="0 0 1024 1024" version="1.1" xmlns="http://www.w3.org/2000/svg" p-id="3478" xmlns:xlink="http://www.w3.org/1999/xlink" width="16" height="16"><defs><style type="text/css"></style></defs><path d="M767.765772 617.209898a43.885714 73.142857 33 1 0 73.611313 47.803747 43.885714 73.142857 33 1 0-73.611313-47.803747Z" fill="#FBD998" p-id="3479"></path><path d="M850.797714 569.987657c-27.092114-17.6128-67.759543 2.282057-92.832914 40.872229-25.073371 38.590171-26.682514 83.850971 0.4096 101.434514 27.092114 17.554286 67.759543-2.311314 92.832914-40.901486 25.044114-38.590171 26.653257-83.850971-0.4096-101.434514z m-12.756114 19.602286c13.575314 8.835657 12.463543 39.906743-6.465829 69.046857-18.929371 29.169371-46.869943 42.832457-60.445257 34.026057-13.575314-8.835657-12.463543-39.906743 6.436572-69.046857 18.958629-29.169371 46.8992-42.832457 60.474514-34.026057z" fill="#967A44" p-id="3480"></path><path d="M256.247305 617.206025a73.142857 43.885714 57 1 1-73.611314 47.803746 73.142857 43.885714 57 1 1 73.611314-47.803746Z" fill="#FBD998" p-id="3481"></path><path d="M173.202286 569.987657c27.121371-17.6128 67.7888 2.282057 92.862171 40.872229 25.044114 38.590171 26.653257 83.850971-0.4096 101.434514-27.092114 17.554286-67.759543-2.311314-92.832914-40.901486-25.073371-38.590171-26.682514-83.850971 0.4096-101.434514z m12.785371 19.602286c-13.575314 8.835657-12.463543 39.906743 6.436572 69.046857 18.958629 29.169371 46.8992 42.832457 60.474514 34.026057 13.575314-8.835657 12.463543-39.906743-6.465829-69.046857-18.929371-29.169371-46.869943-42.832457-60.445257-34.026057z" fill="#967A44" p-id="3482"></path><path d="M431.045486 374.198857c68.842057 0 191.224686-46.840686 227.562057-110.884571 31.422171 21.2992 120.539429 51.8144 120.539428 177.386057l-0.877714 289.704228c0 108.9536-98.567314 185.519543-177.269028 225.660343-23.932343 12.200229-37.361371 42.042514-95.261258 42.042515-57.929143 0-85.372343-40.667429-99.591314-50.322286-97.338514-46.226286-161.674971-112.0256-174.957714-217.380572l0.936228-260.096c0-50.848914 93.184-96.109714 198.919315-96.109714z" fill="#FBD998" p-id="3483"></path><path d="M648.426057 257.521371c-29.842286 52.662857-136.221257 101.814857-210.3296 104.799086l-7.050971 0.175543c-111.235657 0-210.622171 48.098743-210.622172 107.841829l-0.906971 260.037485c13.136457 105.091657 73.610971 176.683886 181.599086 228.000915l9.888914 9.303771c5.295543 4.885943 11.4688 10.474057 15.125943 13.399771 22.966857 18.344229 48.215771 28.730514 79.579428 28.730515 33.821257 0 55.0912-8.455314 77.4144-26.097372l12.170972-9.859657a79.872 79.872 0 0 1 8.484571-5.968457l2.545372-1.404343c109.012114-55.588571 183.617829-137.362286 183.617828-236.075886l0.936229-289.645714c0-70.012343-25.453714-117.496686-70.2464-152.107886l-5.266286-3.861942a825.109943 825.109943 0 0 0-50.205257-31.158858 11.702857 11.702857 0 0 0-16.735086 3.920458z m12.990172 22.820572l0.877714-1.316572 15.506286 9.362286c10.912914 6.729143 22.440229 14.101943 28.525714 18.783086 39.263086 30.339657 61.147429 71.153371 61.147428 133.5296l-0.936228 289.674971c0 87.771429-68.842057 163.254857-170.861714 215.274057a79.345371 79.345371 0 0 0-10.912915 6.816915l-3.920457 2.954971-12.229486 9.947429c-18.432 14.5408-34.728229 21.035886-62.902857 21.035885-25.570743 0-45.8752-8.367543-64.980114-23.610514l-4.827429-4.154514c-7.840914-6.933943-20.128914-18.432-23.200914-20.538514-102.8096-49.005714-157.930057-114.219886-169.866971-209.159315l0.994743-258.574628c0-41.106286 82.768457-82.241829 179.346285-84.406857l7.870172-0.058515c76.946286 0 187.8016-47.864686 230.370743-105.530514z" fill="#967A44" p-id="3484"></path><path d="M365.714286 599.771429m-43.885715 0a43.885714 43.885714 0 1 0 87.771429 0 43.885714 43.885714 0 1 0-87.771429 0Z" fill="#36404D" p-id="3485"></path><path d="M658.285714 599.771429m-43.885714 0a43.885714 43.885714 0 1 0 87.771429 0 43.885714 43.885714 0 1 0-87.771429 0Z" fill="#36404D" p-id="3486"></path><path d="M504.656457 31.012571c144.442514 15.828114 144.530286 90.784914 171.359086 92.335543 326.129371 18.8416 151.844571 503.690971 103.160686 503.690972h-0.643658l0.643658-186.338743c0-122.587429-84.962743-154.565486-118.228115-175.835429l-2.340571-1.550628c-36.337371 64.043886-158.72 110.884571-227.562057 110.884571-105.735314 0-198.919314 45.2608-198.919315 96.138972l-0.585142 156.701257h-0.321829C132.330057 426.042514 119.808 270.189714 193.653029 159.451429 242.249143 86.659657 378.938514 17.261714 504.685714 31.012571z" fill="#A7714E" p-id="3487"></path><path d="M183.939657 152.956343C107.3152 267.819886 120.159086 427.856457 220.715886 632.2176a11.702857 11.702857 0 0 0 8.8064 6.436571l2.633143 0.058515a11.702857 11.702857 0 0 0 11.117714-11.644343l0.585143-156.701257 0.146285-3.306057c3.627886-39.877486 85.050514-78.935771 178.965943-81.071543l15.623315-0.263315c76.507429-2.925714 181.628343-49.532343 222.8224-105.354971l0.760685-1.170286 16.325486 9.508572c10.825143 6.3488 19.485257 12.024686 27.794286 18.461257 39.292343 30.339657 61.147429 71.153371 61.147428 133.5296l-0.585143 186.309486a11.702857 11.702857 0 0 0 9.040458 11.410285l2.925714 0.321829c37.975771 0 92.540343-137.947429 100.995657-255.619657 11.322514-157.227886-51.755886-262.729143-203.132343-271.477029-0.877714-0.029257-1.989486-0.585143-3.949714-2.4576l-8.718629-10.708114c-8.309029-9.947429-20.831086-24.341943-29.461943-31.685486-29.052343-24.634514-69.602743-40.96-128.643657-47.396571C384.146286 5.997714 239.2064 70.0416 183.939657 152.927086zM503.369143 42.656914c54.593829 5.968457 90.7264 20.48 116.033828 41.984 11.966171 10.152229 35.986286 40.374857 37.302858 41.632915 5.646629 5.266286 11.585829 8.338286 18.6368 8.747885 136.074971 7.870171 191.634286 100.7616 181.130971 246.403657l-0.585143 7.3728c-7.489829 83.5584-40.667429 179.346286-62.932114 213.577143l-2.691657 3.803429 0.585143-165.449143c0-69.983086-25.424457-117.467429-70.217143-152.078629a259.2768 259.2768 0 0 0-23.552-16.091428l-8.250515-4.9152a1435.0336 1435.0336 0 0 1-20.158171-11.761372l-3.657143-2.340571a11.702857 11.702857 0 0 0-16.5888 4.008229c-29.842286 52.604343-136.221257 101.756343-210.3296 104.769828l-7.050971 0.175543c-107.9296 0-205.151086 45.377829-210.388115 102.985143l-0.2048 4.3008-0.4096 105.618286-0.877714-1.960229C143.008914 399.301486 138.210743 263.665371 203.395657 165.946514 253.717943 90.463086 390.085486 30.193371 503.369143 42.656914z" fill="#7A4F35" p-id="3488"></path></svg>