<?xml version="1.0" standalone="no"?><!DOCTYPE svg PUBLIC "-//W3C//DTD SVG 1.1//EN" "http://www.w3.org/Graphics/SVG/1.1/DTD/svg11.dtd"><svg t="1620111300720" class="icon" viewBox="0 0 1024 1024" version="1.1" xmlns="http://www.w3.org/2000/svg" p-id="8908" xmlns:xlink="http://www.w3.org/1999/xlink" width="64" height="64"><defs><style type="text/css"></style></defs><path d="M295.3 458.44m-40.63 0a40.63 40.63 0 1 0 81.26 0 40.63 40.63 0 1 0-81.26 0Z" fill="#4AFFFE" p-id="8909"></path><path d="M512 458.44m-40.63 0a40.63 40.63 0 1 0 81.26 0 40.63 40.63 0 1 0-81.26 0Z" fill="#4AFFFE" p-id="8910"></path><path d="M728.7 458.44m-40.63 0a40.63 40.63 0 1 0 81.26 0 40.63 40.63 0 1 0-81.26 0Z" fill="#4AFFFE" p-id="8911"></path><path d="M124.05 175.4v546.66h599.56L839.74 838.2c7.19 7.19 16.02 10.4 24.68 10.4 18.13 0 35.52-14.08 35.52-35.34V175.4H124.05z m742.74 193.98v443.88c0 2.07-1.97 2.18-2.36 2.18-0.26 0-0.55 0-1.24-0.69L747.06 698.61l-9.71-9.71H157.21V208.56h709.58v160.82z" fill="#1D2088" p-id="8912"></path><path d="M295.3 515.64c31.54 0 57.21-25.66 57.21-57.21 0-31.56-25.66-57.22-57.21-57.22s-57.21 25.66-57.21 57.22c0 31.55 25.67 57.21 57.21 57.21z m0-81.26c13.26 0 24.05 10.8 24.05 24.06s-10.78 24.05-24.05 24.05c-13.26 0-24.05-10.78-24.05-24.05s10.79-24.06 24.05-24.06zM512 515.64c31.56 0 57.22-25.66 57.22-57.21 0-31.56-25.66-57.22-57.22-57.22-31.54 0-57.21 25.66-57.21 57.22 0 31.55 25.67 57.21 57.21 57.21z m0-81.26c13.26 0 24.06 10.8 24.06 24.06s-10.8 24.05-24.06 24.05c-13.26 0-24.05-10.78-24.05-24.05s10.79-24.06 24.05-24.06zM728.69 515.64c31.56 0 57.22-25.66 57.22-57.21 0-31.56-25.66-57.22-57.22-57.22-31.54 0-57.21 25.66-57.21 57.22 0.01 31.55 25.67 57.21 57.21 57.21z m0-81.26c13.26 0 24.06 10.8 24.06 24.06s-10.8 24.05-24.06 24.05-24.05-10.78-24.05-24.05 10.79-24.06 24.05-24.06z" fill="#1D2088" p-id="8913"></path></svg>