<?xml version="1.0" standalone="no"?><!DOCTYPE svg PUBLIC "-//W3C//DTD SVG 1.1//EN" "http://www.w3.org/Graphics/SVG/1.1/DTD/svg11.dtd"><svg t="1618218120904" class="icon" viewBox="0 0 1024 1024" version="1.1" xmlns="http://www.w3.org/2000/svg" p-id="2473" width="16" height="16" xmlns:xlink="http://www.w3.org/1999/xlink"><defs><style type="text/css"></style></defs><path d="M450.182737 495.993263c62.760421-11.856842 154.273684-86.689684 187.715368-145.677474 28.941474 19.644632 103.154526 75.776 103.154527 145.650527v226.654316c0 100.352-90.758737 198.763789-163.247158 235.735579-22.042947 11.237053-34.411789 38.696421-87.740632 38.696421-53.355789 0-78.632421-37.456842-91.755789-46.322527-89.626947-42.576842-157.022316-131.072-169.256421-228.109473v-83.159579c0-46.888421 81.246316-117.059368 221.130105-143.494737z" fill="#FBD998" p-id="2474"></path><path d="M450.182737 495.993263c62.760421-11.856842 154.273684-86.689684 187.715368-145.677474 28.941474 19.644632 103.154526 75.776 103.154527 145.650527v226.654316c0 100.352-90.758737 198.763789-163.247158 235.735579-22.042947 11.237053-34.411789 38.696421-87.740632 38.696421-53.355789 0-78.632421-37.456842-91.755789-46.322527-89.626947-42.576842-157.022316-131.072-169.256421-228.109473v-83.159579c0-46.888421 81.246316-117.059368 221.130105-143.494737z" fill="#FBD998" p-id="2475"></path><path d="M628.520421 345.007158c-33.28 58.691368-123.041684 129.562947-180.331789 140.395789-132.042105 24.926316-229.914947 94.100211-229.914948 154.058106v83.159579c12.665263 101.079579 81.542737 193.212632 175.427369 237.837473l14.147368 13.204211c3.368421 3.045053 6.629053 5.928421 8.892632 7.733895 21.153684 16.869053 44.409263 26.435368 73.296842 26.435368 31.151158 0 50.741895-7.760842 71.302737-24.010105l11.210105-9.108211c3.961263-3.098947 7.060211-5.200842 10.159158-6.763789 88.818526-45.298526 169.121684-150.932211 169.121684-245.328842v-226.627369c0-60.604632-45.352421-112.181895-107.897263-154.597052a10.778947 10.778947 0 0 0-15.413895 3.610947z m12.557474 20.695579l3.610947 2.613895C694.918737 405.153684 730.273684 448.970105 730.273684 495.966316v226.654316c0 85.342316-75.183158 184.212211-157.372631 226.115368a73.081263 73.081263 0 0 0-10.051369 6.305684l-3.610947 2.694737c-2.021053 1.616842-9.512421 7.760842-11.290948 9.162105-16.976842 13.419789-31.986526 19.402105-57.882947 19.402106-23.578947 0-42.280421-7.706947-59.877053-21.773474l-4.446315-3.799579c-7.221895-6.386526-18.539789-17.003789-21.369263-18.917053-88.764632-42.307368-153.007158-128.242526-164.648422-220.537263l0.10779-81.81221c0-46.538105 89.303579-109.648842 212.345263-132.904421 59.957895-11.317895 147.105684-77.877895 187.634526-138.832843l1.266527-2.021052z" fill="#967A44" p-id="2476"></path><path d="M363.789474 660.210526m-40.421053 0a40.421053 40.421053 0 1 0 80.842105 0 40.421053 40.421053 0 1 0-80.842105 0Z" fill="#36404D" p-id="2477"></path><path d="M633.263158 660.210526m-40.421053 0a40.421053 40.421053 0 1 0 80.842106 0 40.421053 40.421053 0 1 0-80.842106 0Z" fill="#36404D" p-id="2478"></path><path d="M242.310737 110.645895c222.019368-172.463158 393.081263-33.549474 423.504842 20.533894 84.992 0 154.839579 35.301053 212.803368 120.239158 75.668211 118.379789 13.258105 327.760842 0 404.992-22.366316 130.263579 33.118316 175.804632 104.96 248.93979-109.487158 96.471579-263.599158 65.913263-370.310736 30.935579 63.568842-46.214737 127.784421-129.239579 127.784421-213.665684v-226.627369c0-69.901474-74.213053-126.032842-103.154527-145.677474-33.441684 59.014737-124.954947 133.820632-187.715368 145.650527-139.856842 26.408421-221.130105 96.633263-221.130105 143.494737v83.159579c11.479579 91.082105 71.572211 174.618947 153.034105 219.755789C230.4 987.189895 116.520421 974.848 40.421053 905.350737c33.145263-34.277053 61.332211-84.965053 84.614736-152.117895 20.911158-74.024421-139.317895-423.962947 117.274948-642.586947z" fill="#A7714E" p-id="2479"></path><path d="M235.681684 102.130526C157.130105 169.067789 111.885474 251.338105 93.507368 347.405474c-15.36 80.141474-12.126316 157.884632 4.338527 261.389473l15.36 93.29179c5.874526 37.807158 4.473263 37.591579 1.482105 48.235789-22.635789 65.158737-50.068211 114.526316-82.000842 147.536842a10.778947 10.778947 0 0 0 0.485053 15.440843c79.306105 72.434526 197.039158 85.207579 351.986526 39.424a10.778947 10.778947 0 0 0 2.155789-19.779369c-79.629474-44.112842-136.650105-125.278316-147.536842-211.671579l0.080842-81.81221 0.10779-2.802527c3.584-46.565053 91.782737-107.331368 212.237473-130.101894l6.090106-1.293474c59.607579-14.443789 142.362947-78.605474 181.544421-137.539369l1.266526-2.021052 3.610947 2.613895C694.918737 405.153684 730.273684 448.970105 730.273684 495.966316v226.654316l-0.188631 7.653052c-3.287579 70.144-54.918737 147.671579-123.149474 197.281684a10.778947 10.778947 0 0 0 2.96421 18.970948c156.645053 51.361684 285.103158 51.253895 380.793264-33.091369a10.778947 10.778947 0 0 0 0.565894-15.629473l-25.6-25.923369a811.573895 811.573895 0 0 1-23.174736-24.333473c-51.658105-57.047579-67.745684-104.986947-53.248-189.305264l3.018105-15.521684c4.608-22.797474 12.611368-60.604632 14.147368-68.311579 11.102316-55.727158 17.677474-102.292211 19.375158-147.482947 2.748632-74.105263-8.569263-135.141053-38.076631-181.301895l-5.712843-8.138105c-55.430737-77.312-122.960842-114.553263-207.386947-116.951579l-2.694737-0.080842-2.586947-3.880421C644.149895 80.464842 589.904842 41.930105 528.707368 25.546105 437.679158 1.131789 337.704421 22.878316 235.681684 102.130526z m287.447579-55.781052c61.008842 16.384 114.526316 56.724211 133.281684 90.112a10.778947 10.778947 0 0 0 9.404632 5.497263c84.210526 0 149.638737 36.001684 203.883789 115.550316 26.570105 41.552842 37.133474 98.492632 34.519579 168.609684-1.482105 39.882105-6.925474 81.111579-16.114526 129.374316l-5.793684 28.914526c-4.581053 21.935158-12.665263 60.442947-14.336 70.170947-15.629474 91.216842 2.613895 145.704421 58.529684 207.440842l8.515368 9.189053c3.018105 3.179789 6.197895 6.521263 9.728 10.132211l22.932211 23.228631-3.503158 2.829474c-80.815158 62.706526-187.284211 65.536-316.442947 28.240842l-11.614316-3.449263 4.850526-3.988211c62.248421-52.897684 107.385263-127.191579 110.672842-197.173894l0.188632-8.138106v-226.896842c0-60.604632-45.352421-112.181895-107.897263-154.597052a10.778947 10.778947 0 0 0-15.413895 3.610947c-33.28 58.691368-123.041684 129.562947-180.331789 140.395789-128.916211 24.333474-225.199158 90.677895-229.753264 149.989053L218.273684 639.029895v83.590737l1.266527 8.865684c13.042526 82.405053 63.245474 158.234947 133.928421 205.985684l1.778526 1.158737-8.946526 2.344421c-124.820211 31.043368-220.375579 19.456-287.393685-34.007579l-3.045052-2.533053 4.203789-4.823579c29.184-34.762105 54.191158-82.405053 75.156211-142.848l3.045052-10.455579c1.482105-6.467368 1.347368-13.554526-2.155789-37.133473l-14.686316-89.626948c-18.054737-108.436211-22.231579-187.392-6.763789-268.099368 17.515789-91.432421 60.335158-169.283368 134.629052-232.609684 96.417684-74.859789 189.44-95.124211 273.839158-72.488421z" fill="#7A4F35" p-id="2480"></path></svg>